<svg
    xmlns="http://www.w3.org/2000/svg"
    width="200"
    height="40"
    viewBox="0 0 200 40"
    role="img"
    aria-label="Event Management Logo"
>
    <!-- Ticket Background -->
    <rect x="10" y="5" width="180" height="30" rx="4" ry="4" fill="#007BFF" />

    <!-- Perforation Circles (Left) -->
    <circle cx="10" cy="10" r="2" fill="#ffffff" />
    <circle cx="10" cy="20" r="2" fill="#ffffff" />
    <circle cx="10" cy="30" r="2" fill="#ffffff" />

    <!-- Perforation Circles (Right) -->
    <circle cx="190" cy="10" r="2" fill="#ffffff" />
    <circle cx="190" cy="20" r="2" fill="#ffffff" />
    <circle cx="190" cy="30" r="2" fill="#ffffff" />

    <!-- Horizontal Divider -->
    <line x1="50" y1="5" x2="50" y2="35" stroke="#ffffff" stroke-width="1" stroke-dasharray="2,2" />

    <rect x="20" y="10" width="20" height="20" rx="3" fill="#ffffff" />
    <rect x="22" y="15" width="16" height="2" fill="#007BFF" />
    <rect x="24" y="18" width="5" height="5" rx="1" fill="#007BFF" />
    <rect x="31" y="18" width="5" height="5" rx="1" fill="#007BFF" />
    <rect x="24" y="25" width="5" height="5" rx="1" fill="#007BFF" />
    <rect x="31" y="25" width="5" height="5" rx="1" fill="#007BFF" />

    <text
        x="60"
        y="25"
        font-family="'Roboto', sans-serif"
        font-size="16"
        font-weight="bold"
        fill="#ffffff"
    >
        Event Manager
    </text>
</svg>